<svg xmlns="http://www.w3.org/2000/svg" width="16" height="16"><path d="M8 0L.229 6.858a.665.665 0 00-.064.925.639.639 0 00.91.065l.286-.253v6.44A1.95 1.95 0 003.294 16H6.9v-5.274A1.138 1.138 0 018.028 9.58a1.138 1.138 0 011.128 1.146V16H12.7a1.95 1.95 0 001.934-1.965v-6.44l.286.253a.637.637 0 00.909-.065.663.663 0 00-.064-.925zm5.35 14.035a.65.65 0 01-.645.655h-2.256v-3.964A2.437 2.437 0 008.032 8.27a2.437 2.437 0 00-2.417 2.456v3.964h-2.32a.65.65 0 01-.645-.655V6.457L8 1.735l5.35 4.722v7.578z" fill="#727272" fill-rule="evenodd"/></svg>