<svg xmlns="http://www.w3.org/2000/svg" width="14" height="14"><path d="M12.563 4.148c.007.122.007.25.007.372 0 3.793-2.886 8.164-8.164 8.164A8.103 8.103 0 010 11.398c.23.028.453.036.691.036a5.768 5.768 0 003.563-1.227A2.876 2.876 0 011.57 8.215c.18.027.36.047.543.047.258 0 .516-.035.754-.102A2.865 2.865 0 01.57 5.344v-.035c.383.214.825.347 1.293.363A2.858 2.858 0 01.586 3.285c0-.535.14-1.023.39-1.45a8.14 8.14 0 005.919 3 3.31 3.31 0 01-.07-.655A2.867 2.867 0 019.69 1.313c.825 0 1.57.347 2.098.906a5.67 5.67 0 001.82-.692 2.876 2.876 0 01-1.261 1.578A5.866 5.866 0 0014 2.665a6.248 6.248 0 01-1.438 1.483zm0 0" fill="#1e3050"/></svg>